<svg width="400" height="100" version="1.1" xmlns="http://www.w3.org/2000/svg">
<style>
    path {
        stroke: #fdfffc;
        stroke-width:3;
        fill:transparent;
        stroke-linejoin: round;
    }
        
</style>
    <path d="M25 5 l 20 12 l-20 12 l-20 -12 Z" />
    <path d="M65 5 l 20 12 l-20 12 l-20 -12 Z" />
    <path d="M25 50 l 20 12 l-20 12 l-20 -12 Z" />
    <path d="M65 50 l 20 12 l-20 12 l-20 -12 Z" />

    <path d="M5 17 v21"/>
    <path d="M25 29 v21"/>
    <path d="M45 17 v21"/>
    <path d="M65 29 v21"/>
    <path d="M85 17 v21"/>

    <path d="M5 62 v21"/>
    <path d="M25 74 v21"/>
    <path d="M45 62 v21"/>
    <path d="M65 74 v21"/>
    <path d="M85 62 v21"/>

    <path d="M5 38 l 20 12 l 20 -12 l 20 12 l 20 -12" stroke="red"/>
    <path d="M5 83 l 20 12 l 20 -12 l 20 12 l 20 -12" />

    <text x="100" y="70" fill="#fdfffc" font-weight="600" font-size="60" font-family="STHeiti">
    外贸单证
    </text>
</svg>